<?xml version="1.0" encoding="utf-8"?>
<!-- Generator: Adobe Illustrator 26.3.1, SVG Export Plug-In . SVG Version: 6.00 Build 0)  -->
<svg version="1.1" id="Layer_1" xmlns="http://www.w3.org/2000/svg" xmlns:xlink="http://www.w3.org/1999/xlink" x="0px" y="0px"
	 viewBox="0 0 1000 676.2" style="enable-background:new 0 0 1000 676.2;" xml:space="preserve">
<style type="text/css">
	.st0{fill:#FFFFFF;stroke:#D0B68F;stroke-width:0.8;stroke-miterlimit:10;filter:drop-shadow(0 0 2px rgba(255,255,255,0.5));}
	.st1{fill:url(#SVGID_1_);}
	.st2{fill:url(#SVGID_00000144329721190833340390000017139181283927773846_);}
	.st3{fill:url(#SVGID_00000106131502073630655330000000566571775418878601_);}
	.st4{fill:url(#SVGID_00000137093627236642427480000014813491880884635554_);}
	.st5{fill:url(#SVGID_00000039835633635411588700000013103837223661276809_);}
	.st6{fill:url(#SVGID_00000025414800855279428330000011912988322465315248_);}
	.st7{fill:url(#SVGID_00000106869117596671319430000000983730114730534581_);}
	.st8{fill:url(#SVGID_00000019654308607984771960000002437354563436754582_);}
	.st9{fill:url(#SVGID_00000132774191299908825980000007534230690677897098_);}
	.st10{fill:url(#SVGID_00000021806625504521833310000011950907317976926390_);}
	.st11{fill:url(#SVGID_00000000942569017279167980000003533112887190757791_);}
	.st12{fill:url(#SVGID_00000050643506672705515260000009530065980765489282_);}
	
		.st13{fill:url(#SVGID_00000111900771660470463130000012059333170734943672_);stroke:#D0B68F;stroke-width:4.6575;stroke-miterlimit:10;}
	
		.st14{fill:url(#SVGID_00000009591989113052358470000012432053528459020439_);stroke:#D0B68F;stroke-width:4.6575;stroke-miterlimit:10;}
</style>
<g id="Logo_x5F_">
	<g>
		<path class="st0" d="M112.7,621h12.1v45h26.9v10.2h-39V621z"/>
		<path class="st0" d="M220,621h12.4l20.6,55.2h-12.6l-4.2-12.3h-20.6l-4.3,12.3h-12.3L220,621z M218.9,654.9h14.3l-7-20.3h-0.2
			L218.9,654.9z"/>
		<path class="st0" d="M355.6,676.2h-12.1l-9.4-37.6H334l-9.2,37.6h-12.3L297.9,621H310l8.7,37.6h0.2l9.6-37.6h11.4l9.4,38h0.2l9-38
			h11.9L355.6,676.2z"/>
		<path class="st0" d="M490.4,621h38.8v10.2h-26.7V644h23.1v9.4h-23.1v22.8h-12.1V621z"/>
		<path class="st0" d="M582.7,621h12.1v55.2h-12.1V621z"/>
		<path class="st0" d="M651.9,621h29.8c9.9,0,16.2,6.9,16.2,15.2c0,6.5-2.6,11.4-8.7,13.8v0.2c5.9,1.5,7.7,7.4,8,12.9
			c0.2,3.5,0.2,10,2.3,13.1h-12.1c-1.5-3.5-1.3-8.8-1.9-13.2c-0.9-5.8-3.1-8.4-9.2-8.4h-12.1v21.6h-12.1V621z M664.1,646h13.3
			c5.4,0,8.4-2.3,8.4-7.9c0-5.3-2.9-7.7-8.4-7.7h-13.3V646z"/>
		<path class="st0" d="M754.2,621h17.1l12.9,38h0.1l12.2-38h17.1v55.2h-11.4v-39.1h-0.1l-13.5,39.1h-9.4l-13.5-38.7h-0.2v38.7h-11.4
			V621z"/>
	</g>
	<g id="Symbol">
		<g id="Name">
			<linearGradient id="SVGID_1_" gradientUnits="userSpaceOnUse" x1="-37.7982" y1="282.0056" x2="1067.4189" y2="282.0056">
				<stop  offset="5.618000e-03" style="stop-color:#AF8F5C"/>
				<stop  offset="0.2528" style="stop-color:#FBE484"/>
				<stop  offset="0.3237" style="stop-color:#EBD37A"/>
				<stop  offset="0.4636" style="stop-color:#C2A660"/>
				<stop  offset="0.5955" style="stop-color:#967745"/>
				<stop  offset="0.8708" style="stop-color:#B1945D"/>
				<stop  offset="1" style="stop-color:#DEAF5F"/>
			</linearGradient>
			<path class="st1" d="M43.3,298.6H15.4l-4.6,10H0l23.9-53.2h11l23.9,53.2h-11L43.3,298.6z M29.3,266.6l-9.9,22.7h19.8L29.3,266.6z
				"/>
			
				<linearGradient id="SVGID_00000152225936442698718310000008369479672488792226_" gradientUnits="userSpaceOnUse" x1="-37.7982" y1="282.0056" x2="1067.4189" y2="282.0056">
				<stop  offset="5.618000e-03" style="stop-color:#AF8F5C"/>
				<stop  offset="0.2528" style="stop-color:#FBE484"/>
				<stop  offset="0.3237" style="stop-color:#EBD37A"/>
				<stop  offset="0.4636" style="stop-color:#C2A660"/>
				<stop  offset="0.5955" style="stop-color:#967745"/>
				<stop  offset="0.8708" style="stop-color:#B1945D"/>
				<stop  offset="1" style="stop-color:#DEAF5F"/>
			</linearGradient>
			<path style="fill:url(#SVGID_00000152225936442698718310000008369479672488792226_);" d="M135.3,291.2v-35.8h10v53.2h-8.1
				l-28.3-35.4v35.4h-10v-53.2h8.1L135.3,291.2z"/>
			
				<linearGradient id="SVGID_00000172433445553519569210000017886982145783118256_" gradientUnits="userSpaceOnUse" x1="-37.7982" y1="282.0056" x2="1067.4189" y2="282.0056">
				<stop  offset="5.618000e-03" style="stop-color:#AF8F5C"/>
				<stop  offset="0.2528" style="stop-color:#FBE484"/>
				<stop  offset="0.3237" style="stop-color:#EBD37A"/>
				<stop  offset="0.4636" style="stop-color:#C2A660"/>
				<stop  offset="0.5955" style="stop-color:#967745"/>
				<stop  offset="0.8708" style="stop-color:#B1945D"/>
				<stop  offset="1" style="stop-color:#DEAF5F"/>
			</linearGradient>
			<path style="fill:url(#SVGID_00000172433445553519569210000017886982145783118256_);" d="M191.5,308.6v-53.2h10v53.2H191.5z"/>
			
				<linearGradient id="SVGID_00000080176059263427636180000008988516438017337223_" gradientUnits="userSpaceOnUse" x1="-37.7982" y1="281.7773" x2="1067.4189" y2="281.7773">
				<stop  offset="5.618000e-03" style="stop-color:#AF8F5C"/>
				<stop  offset="0.2528" style="stop-color:#FBE484"/>
				<stop  offset="0.3237" style="stop-color:#EBD37A"/>
				<stop  offset="0.4636" style="stop-color:#C2A660"/>
				<stop  offset="0.5955" style="stop-color:#967745"/>
				<stop  offset="0.8708" style="stop-color:#B1945D"/>
				<stop  offset="1" style="stop-color:#DEAF5F"/>
			</linearGradient>
			<path style="fill:#FFFFFF;stroke:#D0B68F;stroke-width:0.8;stroke-miterlimit:10;filter:drop-shadow(0 0 2px rgba(255,255,255,0.5));" d="M279.4,268.2c-1.8-3-6.8-5.9-12.6-5.9
				c-7.5,0-11,3.1-11,7.1c0,4.6,5.5,5.9,11.9,6.7c11.1,1.4,21.5,4.3,21.5,17c0,11.9-10.5,17-22.4,17c-10.9,0-19.2-3.3-23.2-13.1
				l8.4-4.3c2.4,5.9,8.5,8.4,15,8.4c6.3,0,12.2-2.2,12.2-8c0-5-5.3-7.1-12.3-7.8c-10.9-1.3-20.9-4.2-20.9-16.1
				c0-11,10.8-15.4,20.6-15.5c8.3,0,16.9,2.4,20.9,10.6L279.4,268.2z"/>
			
				<linearGradient id="SVGID_00000150815661992430627840000008903418082574375867_" gradientUnits="userSpaceOnUse" x1="-37.7982" y1="282.0056" x2="1067.4189" y2="282.0056">
				<stop  offset="5.618000e-03" style="stop-color:#AF8F5C"/>
				<stop  offset="0.2528" style="stop-color:#FBE484"/>
				<stop  offset="0.3237" style="stop-color:#EBD37A"/>
				<stop  offset="0.4636" style="stop-color:#C2A660"/>
				<stop  offset="0.5955" style="stop-color:#967745"/>
				<stop  offset="0.8708" style="stop-color:#B1945D"/>
				<stop  offset="1" style="stop-color:#DEAF5F"/>
			</linearGradient>
			<path style="fill:url(#SVGID_00000150815661992430627840000008903418082574375867_);" d="M368.1,298.6h-27.8l-4.6,10h-10.9
				l23.9-53.2h11l23.9,53.2h-11L368.1,298.6z M354.2,266.6l-9.9,22.7h19.8L354.2,266.6z"/>
			
				<linearGradient id="SVGID_00000121239997690127073150000004226679616609363590_" gradientUnits="userSpaceOnUse" x1="-37.7982" y1="282.0056" x2="1067.4189" y2="282.0056">
				<stop  offset="5.618000e-03" style="stop-color:#AF8F5C"/>
				<stop  offset="0.2528" style="stop-color:#FBE484"/>
				<stop  offset="0.3237" style="stop-color:#EBD37A"/>
				<stop  offset="0.4636" style="stop-color:#C2A660"/>
				<stop  offset="0.5955" style="stop-color:#967745"/>
				<stop  offset="0.8708" style="stop-color:#B1945D"/>
				<stop  offset="1" style="stop-color:#DEAF5F"/>
			</linearGradient>
			<path style="fill:url(#SVGID_00000121239997690127073150000004226679616609363590_);" d="M516.8,270.8c0,4.1-2,8.1-6.9,10.3
				c6.2,1.9,8.5,8.5,8.5,11.9c0,11.9-8.9,15.7-19.9,15.7c-8.4,0-16.8,0-25.3,0v-53.2c8.4,0,16.8,0,25.3,0
				C509,255.4,516.8,260.1,516.8,270.8z M483.1,276.8h15.4c6.3,0,8.4-2.7,8.4-5.7c0-2.4-2-6.5-8.4-6.5h-15.4V276.8z M483.1,299.3
				h15.4c4.1,0,10-1.4,10-6.4c0-4.8-5.9-7.3-10-7.3h-15.4V299.3z"/>
			
				<linearGradient id="SVGID_00000181086796484400275260000015802406093407955884_" gradientUnits="userSpaceOnUse" x1="-37.7982" y1="282.0056" x2="1067.4189" y2="282.0056">
				<stop  offset="5.618000e-03" style="stop-color:#AF8F5C"/>
				<stop  offset="0.2528" style="stop-color:#FBE484"/>
				<stop  offset="0.3237" style="stop-color:#EBD37A"/>
				<stop  offset="0.4636" style="stop-color:#C2A660"/>
				<stop  offset="0.5955" style="stop-color:#967745"/>
				<stop  offset="0.8708" style="stop-color:#B1945D"/>
				<stop  offset="1" style="stop-color:#DEAF5F"/>
			</linearGradient>
			<path style="fill:url(#SVGID_00000181086796484400275260000015802406093407955884_);" d="M601.6,308.6h-39.9
				c0-17.7,0-35.5,0-53.2h39.9v9.7h-29.9v12.2h28.8v9.4h-28.8v12h29.9V308.6z"/>
			
				<linearGradient id="SVGID_00000165946599696710920620000014663511989399516856_" gradientUnits="userSpaceOnUse" x1="-37.7982" y1="281.966" x2="1067.4189" y2="281.966">
				<stop  offset="5.618000e-03" style="stop-color:#AF8F5C"/>
				<stop  offset="0.2528" style="stop-color:#FBE484"/>
				<stop  offset="0.3237" style="stop-color:#EBD37A"/>
				<stop  offset="0.4636" style="stop-color:#C2A660"/>
				<stop  offset="0.5955" style="stop-color:#967745"/>
				<stop  offset="0.8708" style="stop-color:#B1945D"/>
				<stop  offset="1" style="stop-color:#DEAF5F"/>
			</linearGradient>
			<path style="fill:url(#SVGID_00000165946599696710920620000014663511989399516856_);" d="M693.1,308.6h-11.5l-15.4-17.8H656v17.8
				h-10v-53.3c8.4,0,16.9,0.1,25.3,0.1c12.6,0.1,19.2,8.4,19.2,17.6c0,7.3-3.3,14.7-13.5,16.7l16.1,18.2V308.6z M656,264.7v17h15.3
				c6.4,0,9.1-4.3,9.1-8.5c0-4.3-2.8-8.5-9.1-8.5H656z"/>
			
				<linearGradient id="SVGID_00000126291916125279646160000015491539295614021301_" gradientUnits="userSpaceOnUse" x1="-37.7982" y1="282.0056" x2="1067.4189" y2="282.0056">
				<stop  offset="5.618000e-03" style="stop-color:#AF8F5C"/>
				<stop  offset="0.2528" style="stop-color:#FBE484"/>
				<stop  offset="0.3237" style="stop-color:#EBD37A"/>
				<stop  offset="0.4636" style="stop-color:#C2A660"/>
				<stop  offset="0.5955" style="stop-color:#967745"/>
				<stop  offset="0.8708" style="stop-color:#B1945D"/>
				<stop  offset="1" style="stop-color:#DEAF5F"/>
			</linearGradient>
			<path style="fill:url(#SVGID_00000126291916125279646160000015491539295614021301_);" d="M745,255.4v44h27.4v9.3h-37.4v-53.2H745
				z"/>
			
				<linearGradient id="SVGID_00000059303522873890126500000016199556527740356782_" gradientUnits="userSpaceOnUse" x1="-37.7982" y1="282.0056" x2="1067.4189" y2="282.0056">
				<stop  offset="5.618000e-03" style="stop-color:#AF8F5C"/>
				<stop  offset="0.2528" style="stop-color:#FBE484"/>
				<stop  offset="0.3237" style="stop-color:#EBD37A"/>
				<stop  offset="0.4636" style="stop-color:#C2A660"/>
				<stop  offset="0.5955" style="stop-color:#967745"/>
				<stop  offset="0.8708" style="stop-color:#B1945D"/>
				<stop  offset="1" style="stop-color:#DEAF5F"/>
			</linearGradient>
			<path style="fill:url(#SVGID_00000059303522873890126500000016199556527740356782_);" d="M813.5,308.6v-53.2h10v53.2H813.5z"/>
			
				<linearGradient id="SVGID_00000048490095554215563580000013380256807233742997_" gradientUnits="userSpaceOnUse" x1="-37.7982" y1="282.0056" x2="1067.4189" y2="282.0056">
				<stop  offset="5.618000e-03" style="stop-color:#AF8F5C"/>
				<stop  offset="0.2528" style="stop-color:#FBE484"/>
				<stop  offset="0.3237" style="stop-color:#EBD37A"/>
				<stop  offset="0.4636" style="stop-color:#C2A660"/>
				<stop  offset="0.5955" style="stop-color:#967745"/>
				<stop  offset="0.8708" style="stop-color:#B1945D"/>
				<stop  offset="1" style="stop-color:#DEAF5F"/>
			</linearGradient>
			<path style="fill:url(#SVGID_00000048490095554215563580000013380256807233742997_);" d="M912.5,255.7l-23.7,25.5l25.6,26.9v0.6
				h-12.4L879.8,285v23.6h-10v-53.2h10v22.5l20.2-22.5h12.5V255.7z"/>
			
				<linearGradient id="SVGID_00000105428671780230822360000014072239261649057420_" gradientUnits="userSpaceOnUse" x1="-37.7982" y1="282.6132" x2="1067.4189" y2="282.6132">
				<stop  offset="5.618000e-03" style="stop-color:#AF8F5C"/>
				<stop  offset="0.2528" style="stop-color:#FBE484"/>
				<stop  offset="0.3237" style="stop-color:#EBD37A"/>
				<stop  offset="0.4636" style="stop-color:#C2A660"/>
				<stop  offset="0.5955" style="stop-color:#967745"/>
				<stop  offset="0.8708" style="stop-color:#B1945D"/>
				<stop  offset="1" style="stop-color:#DEAF5F"/>
			</linearGradient>
			<path style="fill:url(#SVGID_00000105428671780230822360000014072239261649057420_);" d="M1000,255.5V286
				c0,15.7-9.7,23.8-23.1,23.8c-12.8,0-23.7-7.8-23.7-23.8v-30.5h10V286c0,9.6,5.5,14.7,13.8,14.7c8.3,0,13-5.6,13-14.7v-30.5H1000z
				"/>
		</g>
		<g id="S1">
			
				<linearGradient id="SVGID_00000004545895480839335880000007596358220221528975_" gradientUnits="userSpaceOnUse" x1="35.3615" y1="88.3465" x2="420.5054" y2="561.4366">
				<stop  offset="5.618000e-03" style="stop-color:#CDAB61"/>
				<stop  offset="0.2528" style="stop-color:#EBD06F"/>
				<stop  offset="0.3278" style="stop-color:#DBBF68"/>
				<stop  offset="0.4759" style="stop-color:#B19255"/>
				<stop  offset="0.5955" style="stop-color:#8B6A44"/>
				<stop  offset="0.8708" style="stop-color:#E2B95E"/>
				<stop  offset="1" style="stop-color:#A37945"/>
			</linearGradient>
			
				<path style="fill:url(#SVGID_00000004545895480839335880000007596358220221528975_);stroke:#D0B68F;stroke-width:4.6575;stroke-miterlimit:10;" d="
				M556.6,515.3l-26-58.7c-2.8-5.9-5.7-12.3-8.7-19.1l-24.1-54.7l-0.5-1.1L478.1,338H343.8l52.5,121c7.3,17.2,11.2,27,11.8,29.3
				c1.6,4.9,2.3,9.8,2.3,14.4c0,7.9-2.9,13.8-8.6,18c-8.3,5.7-22.8,8.6-43.4,8.6h-10.6v14.4h221.6L556.6,515.3z M330.6,2.6h-7.4
				L226,219.3h32.9l16.9-38l16.5,38h133.6L330.6,2.6z M165.5,520c-12-7-18-18-18-32.9c0-11.2,3.7-25.4,11-42.6L206,338h-33.2
				l-39.3,87.7c-18,40.4-33.1,67.1-45.4,80c-12.2,12.9-27.9,20.8-46.9,23.7v14.4h176.4v-14.4C189.9,527.3,172.5,524.2,165.5,520z"/>
			
				<linearGradient id="SVGID_00000176023766471012093040000012301516903672286370_" gradientUnits="userSpaceOnUse" x1="336.7626" y1="-157.0249" x2="721.9065" y2="316.0652">
				<stop  offset="5.618000e-03" style="stop-color:#CDAB61"/>
				<stop  offset="0.2528" style="stop-color:#EBD06F"/>
				<stop  offset="0.3278" style="stop-color:#DBBF68"/>
				<stop  offset="0.4759" style="stop-color:#B19255"/>
				<stop  offset="0.5955" style="stop-color:#8B6A44"/>
				<stop  offset="0.8708" style="stop-color:#E2B95E"/>
				<stop  offset="1" style="stop-color:#A37945"/>
			</linearGradient>
			
				<path style="fill:url(#SVGID_00000176023766471012093040000012301516903672286370_);stroke:#D0B68F;stroke-width:4.6575;stroke-miterlimit:10;" d="
				M850.8,338h-138c10.4,19,15.6,40.3,15.6,63.9c0,32.2-11.6,76.6-54.6,99.2c-17.6,9.3-36.8,13.9-57.7,13.9
				c-5.3,0-10.1,0.1-14.6,0.1l13.6,28.8h31.1c75.1,0,132.3-15.8,171.7-47.3c32.1-26.1,48.1-59.1,48.1-99
				C866.1,375.3,861,355.4,850.8,338z M760.1,29.7C734.8,19,691.8,13.5,631,13.5H422.6V28c20,0,34.8,1.5,44.3,4.5
				c1.5,0.5,17,5.4,24,19.9c3.5,7.4,5.3,25.5,5.3,54.2v112.7h110.4V44.2c32.2,2.3,68,8.9,90,44.6c9.2,15,13.9,34.2,13.9,57.7
				c0,35-10.4,57-25.7,72.8h125.2c1.4-1.4,2.8-2.8,4.2-4.2c18.5-20,27.8-42.7,27.8-68.2C841.8,86.3,797.7,45.8,760.1,29.7z"/>
		</g>
	</g>
</g>
</svg>
